<svg width="1075" height="288" viewBox="0 0 1075 288" fill="none" xmlns="http://www.w3.org/2000/svg">
<path class="letter" d="M123.082 286.003C122.683 287.334 122.017 288 121.085 288H58.9783C57.647 288 56.7816 287.334 56.3822 286.003L0.0665654 1.99723C-0.0665686 1.46463 4.47035e-06 1.06519 0.266272 0.79889C0.53254 0.532594 0.865345 0.332871 1.26475 0.199723C1.66415 0.0665742 2.06353 0 2.46293 0H39.807C40.7389 0 41.4046 0.665742 41.804 1.99723L86.7367 247.057C87.0029 248.255 87.7352 248.854 88.9334 248.854C90.1316 248.854 90.7973 248.255 90.9304 247.057L141.455 1.99723C141.854 0.665742 142.586 0 143.651 0H212.348C213.28 0 213.946 0.665742 214.346 1.99723L265.07 247.057C265.203 248.255 265.868 248.854 267.066 248.854C268.265 248.854 268.93 248.255 269.064 247.057L314.196 1.99723C314.595 0.665742 315.261 0 316.193 0H353.337C353.87 0 354.336 0.0665742 354.735 0.199723C355.135 0.332871 355.467 0.532594 355.734 0.79889C356 1.06519 356.067 1.46463 355.933 1.99723L299.418 286.003C299.019 287.334 298.22 288 297.022 288H234.715C233.783 288 233.117 287.334 232.718 286.003L179.997 41.3426C179.864 40.4105 179.198 39.9445 178 39.9445C176.802 39.9445 176.136 40.4105 176.003 41.3426L123.082 286.003Z" fill="black"/>
<path class="letter" d="M528.825 286.003C528.426 287.334 527.761 288 526.831 288H474.781C473.585 288 472.787 287.334 472.388 286.003L376.066 1.99723C375.934 1.46463 376 1.06519 376.266 0.79889C376.532 0.532594 376.864 0.332871 377.263 0.199723C377.662 0.0665742 378.061 0 378.46 0H416.549C417.48 0 418.145 0.665742 418.544 1.99723L498.513 247.456C498.911 248.388 499.609 248.854 500.607 248.854C501.604 248.854 502.302 248.388 502.701 247.456L581.473 1.99723C581.872 0.665742 582.537 0 583.467 0H621.956C622.621 0 623.152 0.199723 623.551 0.599168C623.95 0.998613 624.083 1.46463 623.95 1.99723L528.825 286.003Z" fill="black"/>
<path class="letter" d="M754.881 286.003C754.881 287.334 754.215 288 752.883 288H718.117C716.652 288 715.919 287.334 715.919 286.003V36.3495C715.386 35.2843 714.72 34.7517 713.921 34.7517H634.998C633.666 34.7517 633 34.086 633 32.7545V1.99723C633 0.665742 633.666 0 634.998 0H835.802C837.267 0 838 0.665742 838 1.99723V32.7545C838 34.086 837.267 34.7517 835.802 34.7517H756.879C755.547 34.7517 754.881 35.484 754.881 36.9487V286.003Z" fill="black"/>
<path class="letter" d="M902.853 286.003C902.853 287.334 902.122 288 900.661 288H865.992C864.664 288 864 287.334 864 286.003V1.99723C864 0.665742 864.664 0 865.992 0H900.661C902.122 0 902.853 0.665742 902.853 1.99723V120.233C902.853 121.698 903.517 122.43 904.845 122.43H1034.15C1035.48 122.43 1036.15 121.698 1036.15 120.233V1.99723C1036.15 0.665742 1036.88 0 1038.34 0H1073.01C1074.34 0 1075 0.665742 1075 1.99723V286.003C1075 287.334 1074.34 288 1073.01 288H1038.34C1036.88 288 1036.15 287.334 1036.15 286.003V159.179C1036.15 157.847 1035.48 157.182 1034.15 157.182H904.845C903.517 157.182 902.853 157.714 902.853 158.779V286.003Z" fill="black"/>
</svg>
