<?xml version="1.0" encoding="UTF-8"?>
<svg width="1075px" height="288px" viewBox="0 0 1075 288" version="1.1" xmlns="http://www.w3.org/2000/svg" xmlns:xlink="http://www.w3.org/1999/xlink">
    <title>WVTH</title>
    <g id="Design" stroke="none" stroke-width="1" fill="none" fill-rule="evenodd">
        <g id="Home---1920" transform="translate(-816.000000, -217.000000)" fill="#000000" fill-rule="nonzero">
            <g id="Hero" transform="translate(0.000000, 217.000000)">
                <path d="M937.085266,288 C938.017203,288 938.682872,287.334258 939.082274,286.002774 L939.082274,286.002774 L992.002992,41.3425798 C992.136126,40.4105409 992.801795,39.9445215 994,39.9445215 C995.198205,39.9445215 995.863874,40.4105409 995.997008,41.3425798 L995.997008,41.3425798 L1048.71803,286.002774 C1049.11743,287.334258 1049.7831,288 1050.71503,288 L1050.71503,288 L1113.02169,288 C1114.2199,288 1115.0187,287.334258 1115.4181,286.002774 L1115.4181,286.002774 L1171.93343,1.99722607 C1172.06657,1.46463245 1172,1.06518724 1171.73373,0.79889043 C1171.46746,0.53259362 1171.13463,0.332871012 1170.73523,0.199722607 C1170.33583,0.0665742025 1169.86986,0 1169.33732,0 L1169.33732,0 L1132.19297,0 C1131.26103,0 1130.59536,0.665742025 1130.19596,1.99722607 L1130.19596,1.99722607 L1085.06358,247.056865 C1084.93044,248.255201 1084.26477,248.854369 1083.06657,248.854369 C1081.86836,248.854369 1081.20269,248.255201 1081.06956,247.056865 L1081.06956,247.056865 L1030.34555,1.99722607 C1029.94615,0.665742025 1029.28048,0 1028.34854,0 L1028.34854,0 L959.651458,0 C958.586387,0 957.854151,0.665742025 957.454749,1.99722607 L957.454749,1.99722607 L906.930441,247.056865 C906.797307,248.255201 906.131638,248.854369 904.933433,248.854369 C903.735228,248.854369 903.002992,248.255201 902.736724,247.056865 L902.736724,247.056865 L857.804039,1.99722607 C857.404637,0.665742025 856.738968,0 855.807031,0 L855.807031,0 L818.462977,0 C818.063575,0 817.664174,0.0665742025 817.264772,0.199722607 C816.86537,0.332871012 816.532536,0.53259362 816.266268,0.79889043 C816,1.06518724 815.933433,1.46463245 816.066567,1.99722607 L816.066567,1.99722607 L872.382199,286.002774 C872.781601,287.334258 873.646971,288 874.97831,288 L874.97831,288 L937.085266,288 Z M1342.8308,288 C1343.76144,288 1344.42619,287.334258 1344.82504,286.002774 L1344.82504,286.002774 L1439.95014,1.99722607 C1440.08309,1.46463245 1439.95014,0.998613037 1439.5513,0.599167822 C1439.15245,0.199722607 1438.62065,0 1437.95591,0 L1437.95591,0 L1399.46713,0 C1398.53649,0 1397.87174,0.665742025 1397.47289,1.99722607 L1397.47289,1.99722607 L1318.70053,247.456311 C1318.30168,248.38835 1317.6037,248.854369 1316.60658,248.854369 C1315.60946,248.854369 1314.91148,248.38835 1314.51263,247.456311 L1314.51263,247.456311 L1234.54372,1.99722607 C1234.14488,0.665742025 1233.48013,0 1232.54949,0 L1232.54949,0 L1194.45956,0 C1194.06071,0 1193.66186,0.0665742025 1193.26302,0.199722607 C1192.86417,0.332871012 1192.5318,0.53259362 1192.2659,0.79889043 C1192,1.06518724 1191.93353,1.46463245 1192.06647,1.99722607 L1192.06647,1.99722607 L1288.38813,286.002774 C1288.78697,287.334258 1289.58467,288 1290.78121,288 L1290.78121,288 L1342.8308,288 Z M1568.88304,288 C1570.21507,288 1570.88109,287.334258 1570.88109,286.002774 L1570.88109,286.002774 L1570.88109,36.9486824 C1570.88109,35.4840499 1571.54711,34.7517337 1572.87914,34.7517337 L1572.87914,34.7517337 L1651.80214,34.7517337 C1653.26738,34.7517337 1654,34.0859917 1654,32.7545076 L1654,32.7545076 L1654,1.99722607 C1654,0.665742025 1653.26738,0 1651.80214,0 L1651.80214,0 L1450.99805,0 C1449.66602,0 1449,0.665742025 1449,1.99722607 L1449,1.99722607 L1449,32.7545076 C1449,34.0859917 1449.66602,34.7517337 1450.99805,34.7517337 L1450.99805,34.7517337 L1529.92105,34.7517337 C1530.72027,34.7517337 1531.38629,35.2843273 1531.9191,36.3495146 L1531.9191,36.3495146 L1531.9191,286.002774 C1531.9191,287.334258 1532.65172,288 1534.11696,288 L1534.11696,288 L1568.88304,288 Z M1716.661,288 C1718.12213,288 1718.85269,287.334258 1718.85269,286.002774 L1718.85269,286.002774 L1718.85269,158.779473 C1718.85269,157.714286 1719.51684,157.181692 1720.84514,157.181692 L1720.84514,157.181692 L1850.15486,157.181692 C1851.48316,157.181692 1852.14731,157.847434 1852.14731,159.178918 L1852.14731,159.178918 L1852.14731,286.002774 C1852.14731,287.334258 1852.87787,288 1854.339,288 L1854.339,288 L1889.00755,288 C1890.33585,288 1891,287.334258 1891,286.002774 L1891,286.002774 L1891,1.99722607 C1891,0.665742025 1890.33585,0 1889.00755,0 L1889.00755,0 L1854.339,0 C1852.87787,0 1852.14731,0.665742025 1852.14731,1.99722607 L1852.14731,1.99722607 L1852.14731,120.23301 C1852.14731,121.697642 1851.48316,122.429958 1850.15486,122.429958 L1850.15486,122.429958 L1720.84514,122.429958 C1719.51684,122.429958 1718.85269,121.697642 1718.85269,120.23301 L1718.85269,120.23301 L1718.85269,1.99722607 C1718.85269,0.665742025 1718.12213,0 1716.661,0 L1716.661,0 L1681.99245,0 C1680.66415,0 1680,0.665742025 1680,1.99722607 L1680,1.99722607 L1680,286.002774 C1680,287.334258 1680.66415,288 1681.99245,288 L1681.99245,288 L1716.661,288 Z" id="WVTH"></path>
            </g>
        </g>
    </g>
</svg>